<svg xmlns="http://www.w3.org/2000/svg" width="178" height="52" viewBox="0 0 178 52" fill="none">
  <path d="M178 46.003C178 48.7742 175.709 51.0189 172.874 51.0189H5.13243C2.2995 51.0189 0 48.7742 0 46.003V6.0035C0 3.23367 2.2995 0.981133 5.13243 0.981133H172.873C175.709 0.981133 177.999 3.23367 177.999 6.0035L178 46.003Z" fill="#022B69"/>
  <path d="M39.1707 25.7192C39.132 21.5293 42.6893 19.4909 42.852 19.396C40.8373 16.5321 37.7147 16.1408 36.6173 16.1096C33.9947 15.8405 31.4507 17.6397 30.1147 17.6397C28.752 17.6397 26.6947 16.1356 24.4773 16.1798C21.624 16.2227 18.9547 17.8334 17.4907 20.3346C14.4693 25.4345 16.7227 32.929 19.6173 37.0513C21.0653 39.0702 22.7573 41.3244 24.972 41.2451C27.1387 41.158 27.948 39.8983 30.5627 39.8983C33.1533 39.8983 33.9133 41.2451 36.172 41.1944C38.4973 41.158 39.9613 39.1664 41.3587 37.1293C43.032 34.8153 43.704 32.5364 43.7307 32.4194C43.676 32.4012 39.2147 30.7411 39.1707 25.7192Z" fill="white"/>
  <path d="M34.904 13.3978C36.0693 11.9769 36.8667 10.0438 36.6453 8.08208C34.9587 8.15488 32.8493 9.21958 31.6347 10.6093C30.56 11.8339 29.6 13.8411 29.848 15.7287C31.7427 15.8665 33.688 14.7966 34.904 13.3978Z" fill="white"/>
  <path d="M67.0253 38.2633H64.3924L62.9502 33.8447H57.9371L56.5633 38.2633H54L58.9666 23.2204H62.0343L67.0253 38.2633ZM62.5154 31.9909L61.2111 28.0629C61.0732 27.6616 60.8146 26.7166 60.4332 25.2291H60.3868C60.235 25.8688 59.9903 26.8138 59.6541 28.0629L58.3731 31.9909H62.5154V31.9909Z" fill="white"/>
  <path d="M79.7978 32.7064C79.7978 34.5512 79.2865 36.0094 78.264 37.0798C77.3481 38.0327 76.2108 38.5086 74.8532 38.5086C73.3878 38.5086 72.3351 37.9954 71.694 36.969H71.6476V42.683H69.1759V30.9872C69.1759 29.8274 69.1446 28.6371 69.0843 27.4163H71.258L71.396 29.1356H71.4424C72.2667 27.8402 73.5176 27.1937 75.1963 27.1937C76.5087 27.1937 77.6043 27.6989 78.4808 28.7106C79.3596 29.7234 79.7978 31.055 79.7978 32.7064ZM77.2797 32.7946C77.2797 31.7389 77.0362 30.8685 76.547 30.1835C76.0125 29.4691 75.2949 29.1119 74.3952 29.1119C73.7854 29.1119 73.2312 29.3108 72.7362 29.7031C72.24 30.0987 71.9154 30.6153 71.7635 31.2551C71.687 31.5535 71.6487 31.7976 71.6487 31.9898V33.7984C71.6487 34.5874 71.8968 35.2532 72.393 35.7969C72.8892 36.3406 73.5338 36.6118 74.3268 36.6118C75.2578 36.6118 75.9824 36.2614 76.5006 35.5629C77.02 34.8632 77.2797 33.9408 77.2797 32.7946Z" fill="white"/>
  <path d="M92.5935 32.7064C92.5935 34.5512 92.0823 36.0094 91.0586 37.0798C90.1438 38.0327 89.0065 38.5086 87.6489 38.5086C86.1835 38.5086 85.1308 37.9954 84.4908 36.969H84.4445V42.683H81.9727V30.9872C81.9727 29.8274 81.9414 28.6371 81.8812 27.4163H84.0549L84.1929 29.1356H84.2393C85.0624 27.8402 86.3133 27.1937 87.9932 27.1937C89.3045 27.1937 90.4 27.6989 91.2788 28.7106C92.1541 29.7234 92.5935 31.055 92.5935 32.7064ZM90.0754 32.7946C90.0754 31.7389 89.8308 30.8685 89.3416 30.1835C88.8071 29.4691 88.0918 29.1119 87.191 29.1119C86.58 29.1119 86.027 29.3108 85.5308 29.7031C85.0346 30.0987 84.7111 30.6153 84.5592 31.2551C84.4839 31.5535 84.4445 31.7976 84.4445 31.9898V33.7984C84.4445 34.5874 84.6926 35.2532 85.1865 35.7969C85.6827 36.3394 86.3273 36.6118 87.1226 36.6118C88.0535 36.6118 88.7781 36.2614 89.2964 35.5629C89.8157 34.8632 90.0754 33.9408 90.0754 32.7946Z" fill="white"/>
  <path d="M106.9 34.0448C106.9 35.3244 106.444 36.3654 105.53 37.1691C104.524 38.0474 103.125 38.486 101.327 38.486C99.6667 38.486 98.3358 38.174 97.3283 37.5489L97.901 35.5403C98.9862 36.18 100.177 36.5011 101.474 36.5011C102.405 36.5011 103.13 36.2953 103.65 35.8862C104.168 35.477 104.427 34.9276 104.427 34.2426C104.427 33.6322 104.214 33.1179 103.786 32.7008C103.36 32.2837 102.65 31.896 101.657 31.5376C98.956 30.5554 97.6066 29.1164 97.6066 27.2242C97.6066 25.9876 98.0796 24.9736 99.0267 24.1846C99.9705 23.3945 101.23 23 102.804 23C104.208 23 105.374 23.2385 106.305 23.7144L105.687 25.679C104.818 25.2178 103.835 24.9872 102.734 24.9872C101.865 24.9872 101.185 25.1963 100.699 25.6123C100.287 25.9842 100.081 26.4374 100.081 26.9744C100.081 27.5689 100.316 28.0606 100.789 28.4472C101.201 28.8044 101.948 29.191 103.033 29.6081C104.361 30.1292 105.336 30.7385 105.963 31.437C106.588 32.1333 106.9 33.0049 106.9 34.0448Z" fill="white"/>
  <path d="M115.072 29.2249H112.348V34.4913C112.348 35.8308 112.828 36.4999 113.79 36.4999C114.232 36.4999 114.598 36.4626 114.888 36.388L114.956 38.2181C114.469 38.3955 113.828 38.4848 113.034 38.4848C112.058 38.4848 111.295 38.1943 110.744 37.6145C110.196 37.0335 109.92 36.0591 109.92 34.6902V29.2226H108.297V27.4141H109.92V25.428L112.348 24.7136V27.4141H115.072V29.2249Z" fill="white"/>
  <path d="M127.365 32.7505C127.365 34.4178 126.875 35.7867 125.899 36.8571C124.876 37.9592 123.517 38.5086 121.823 38.5086C120.191 38.5086 118.891 37.9807 117.922 36.925C116.953 35.8692 116.468 34.5365 116.468 32.9302C116.468 31.2494 116.966 29.8726 117.967 28.8022C118.965 27.7306 120.312 27.1948 122.006 27.1948C123.639 27.1948 124.952 27.7227 125.943 28.7795C126.892 29.8048 127.365 31.1284 127.365 32.7505ZM124.8 32.8285C124.8 31.8281 124.581 30.9702 124.137 30.2547C123.619 29.3888 122.878 28.957 121.918 28.957C120.924 28.957 120.17 29.3899 119.652 30.2547C119.208 30.9713 118.988 31.8428 118.988 32.8737C118.988 33.8741 119.208 34.732 119.652 35.4464C120.186 36.3123 120.933 36.7441 121.896 36.7441C122.84 36.7441 123.581 36.3033 124.115 35.4238C124.571 34.6947 124.8 33.8278 124.8 32.8285Z" fill="white"/>
  <path d="M135.399 29.5358C135.154 29.4917 134.893 29.4691 134.62 29.4691C133.75 29.4691 133.078 29.789 132.605 30.4299C132.193 30.9951 131.987 31.7095 131.987 32.5719V38.2633H129.516L129.54 30.8323C129.54 29.5821 129.508 28.4438 129.447 27.4175H131.6L131.69 29.4928H131.759C132.019 28.7796 132.431 28.2053 132.994 27.7747C133.545 27.3869 134.14 27.1937 134.781 27.1937C135.009 27.1937 135.216 27.2095 135.399 27.2377V29.5358Z" fill="white"/>
  <path d="M146.453 32.3266C146.453 32.7584 146.424 33.1224 146.363 33.4197H138.948C138.977 34.4913 139.335 35.3108 140.024 35.876C140.648 36.3812 141.457 36.6344 142.449 36.6344C143.547 36.6344 144.549 36.4638 145.449 36.1213L145.837 37.7942C144.784 38.2418 143.541 38.4645 142.107 38.4645C140.382 38.4645 139.028 37.9694 138.042 36.9803C137.059 35.9913 136.566 34.6631 136.566 32.9969C136.566 31.3613 137.024 29.9992 137.941 28.9129C138.901 27.7532 140.199 27.1733 141.831 27.1733C143.434 27.1733 144.648 27.7532 145.473 28.9129C146.125 29.8342 146.453 30.9736 146.453 32.3266ZM144.096 31.7015C144.113 30.9871 143.951 30.37 143.616 29.8489C143.189 29.1786 142.531 28.844 141.647 28.844C140.839 28.844 140.181 29.1707 139.679 29.8263C139.268 30.3474 139.023 30.9725 138.948 31.7004H144.096V31.7015Z" fill="white"/>
  <path d="M64.0997 15.2059C64.0997 16.5084 63.699 17.4889 62.8988 18.1474C62.1576 18.755 61.1043 19.0593 59.74 19.0593C59.0635 19.0593 58.4847 19.0305 58 18.973V11.8561C58.6322 11.7565 59.3132 11.7056 60.0487 11.7056C61.3483 11.7056 62.3279 11.9811 62.9885 12.5322C63.7285 13.1553 64.0997 14.0461 64.0997 15.2059ZM62.8454 15.238C62.8454 14.3936 62.6162 13.7462 62.1576 13.2947C61.6991 12.8443 61.0294 12.6186 60.1475 12.6186C59.7729 12.6186 59.454 12.6429 59.1895 12.6938V18.1042C59.3359 18.1264 59.6038 18.1363 59.9931 18.1363C60.9034 18.1363 61.606 17.8896 62.1009 17.396C62.5957 16.9024 62.8454 16.1831 62.8454 15.238Z" fill="white"/>
  <path d="M70.7498 16.3436C70.7498 17.1459 70.5148 17.8032 70.0449 18.3189C69.5523 18.849 68.8997 19.1135 68.0847 19.1135C67.2993 19.1135 66.6739 18.8601 66.2074 18.351C65.742 17.8431 65.5094 17.2023 65.5094 16.4299C65.5094 15.622 65.7489 14.9591 66.2301 14.4445C66.7114 13.9299 67.3583 13.6721 68.1733 13.6721C68.9587 13.6721 69.5898 13.9255 70.0676 14.4335C70.5217 14.927 70.7498 15.5645 70.7498 16.3436ZM69.516 16.3812C69.516 15.8998 69.4093 15.487 69.1971 15.1428C68.9474 14.7267 68.5921 14.5187 68.1301 14.5187C67.6523 14.5187 67.2891 14.7267 67.0394 15.1428C66.826 15.487 66.7204 15.9064 66.7204 16.4022C66.7204 16.8836 66.8271 17.2964 67.0394 17.6406C67.297 18.0567 67.6557 18.2647 68.1188 18.2647C68.5728 18.2647 68.9292 18.0533 69.1857 17.6295C69.4059 17.2787 69.516 16.8626 69.516 16.3812Z" fill="white"/>
  <path d="M79.6666 13.7783L77.9924 18.9951H76.9028L76.2093 16.7298C76.0334 16.1643 75.8903 15.6021 75.7791 15.0443H75.7575C75.6543 15.6176 75.5112 16.1787 75.3274 16.7298L74.5907 18.9951H73.4886L71.9143 13.7783H73.1368L73.7417 16.2583C73.8881 16.8449 74.0085 17.4037 74.1049 17.9327H74.1265C74.215 17.4967 74.3615 16.9412 74.568 16.2694L75.3274 13.7794H76.2967L77.0242 16.2163C77.2002 16.8106 77.3432 17.3827 77.4533 17.9338H77.4862C77.5668 17.3971 77.6882 16.825 77.8494 16.2163L78.4986 13.7794H79.6666V13.7783Z" fill="white"/>
  <path d="M85.8332 18.9951H84.6437V16.0071C84.6437 15.0864 84.285 14.626 83.5654 14.626C83.2124 14.626 82.9275 14.7522 82.7062 15.0056C82.4871 15.259 82.3759 15.5578 82.3759 15.8998V18.994H81.1864V15.269C81.1864 14.8108 81.1716 14.314 81.1433 13.7761H82.1886L82.2442 14.5917H82.2772C82.4156 14.3383 82.6222 14.1291 82.8935 13.962C83.2158 13.7673 83.5768 13.6688 83.9718 13.6688C84.4712 13.6688 84.8866 13.8259 85.2169 14.1413C85.6278 14.5275 85.8332 15.1041 85.8332 15.8699V18.9951V18.9951Z" fill="white"/>
  <path d="M89.1134 18.9951H87.9251V11.3846H89.1134V18.9951Z" fill="white"/>
  <path d="M96.1166 16.3436C96.1166 17.1459 95.8816 17.8032 95.4117 18.3189C94.9191 18.849 94.2654 19.1135 93.4515 19.1135C92.665 19.1135 92.0396 18.8601 91.5742 18.351C91.1088 17.8431 90.8762 17.2023 90.8762 16.4299C90.8762 15.622 91.1156 14.9591 91.5969 14.4445C92.0782 13.9299 92.7251 13.6721 93.5389 13.6721C94.3255 13.6721 94.9555 13.9255 95.4344 14.4335C95.8884 14.927 96.1166 15.5645 96.1166 16.3436ZM94.8817 16.3812C94.8817 15.8998 94.775 15.487 94.5627 15.1428C94.3142 14.7267 93.9578 14.5187 93.4969 14.5187C93.018 14.5187 92.6547 14.7267 92.4062 15.1428C92.1928 15.487 92.0872 15.9064 92.0872 16.4022C92.0872 16.8836 92.1939 17.2964 92.4062 17.6406C92.6638 18.0567 93.0225 18.2647 93.4856 18.2647C93.9396 18.2647 94.2949 18.0533 94.5514 17.6295C94.7727 17.2787 94.8817 16.8626 94.8817 16.3812Z" fill="white"/>
  <path d="M101.873 18.9951H100.805L100.717 18.3942H100.684C100.318 18.8734 99.7975 19.1135 99.121 19.1135C98.6159 19.1135 98.2073 18.9553 97.8997 18.641C97.6205 18.3555 97.4809 18.0002 97.4809 17.5786C97.4809 16.9411 97.7533 16.4553 98.3015 16.1189C98.8486 15.7825 99.6182 15.6176 100.609 15.6253V15.528C100.609 14.8407 100.239 14.4977 99.4978 14.4977C98.9701 14.4977 98.5047 14.6271 98.1029 14.8839L97.8611 14.1225C98.3583 13.8226 98.9723 13.6721 99.6965 13.6721C101.095 13.6721 101.796 14.3914 101.796 15.8301V17.7512C101.796 18.2725 101.822 18.6874 101.873 18.9951ZM100.639 17.2023V16.3978C99.3264 16.3756 98.6704 16.7265 98.6704 17.4491C98.6704 17.7213 98.7453 17.925 98.8985 18.0611C99.0518 18.1972 99.247 18.2647 99.4797 18.2647C99.7407 18.2647 99.9848 18.1839 100.207 18.0235C100.431 17.8619 100.568 17.6572 100.619 17.4059C100.632 17.3495 100.639 17.2809 100.639 17.2023Z" fill="white"/>
  <path d="M108.633 18.9951H107.577L107.521 18.1574H107.488C107.151 18.7948 106.577 19.1135 105.77 19.1135C105.125 19.1135 104.588 18.8667 104.163 18.3732C103.737 17.8796 103.525 17.2388 103.525 16.452C103.525 15.6076 103.755 14.9237 104.218 14.4014C104.667 13.9144 105.216 13.671 105.87 13.671C106.588 13.671 107.091 13.9067 107.377 14.3792H107.4V11.3846H108.591V17.5896C108.591 18.0976 108.604 18.5657 108.633 18.9951ZM107.4 16.7951V15.9252C107.4 15.7747 107.389 15.653 107.367 15.56C107.3 15.2812 107.156 15.0466 106.937 14.8573C106.716 14.6681 106.449 14.5729 106.141 14.5729C105.697 14.5729 105.35 14.7444 105.095 15.0886C104.842 15.4328 104.713 15.8721 104.713 16.4088C104.713 16.9245 104.835 17.3429 105.079 17.6649C105.336 18.008 105.684 18.1795 106.118 18.1795C106.509 18.1795 106.821 18.0367 107.058 17.7501C107.288 17.4856 107.4 17.1669 107.4 16.7951Z" fill="white"/>
  <path d="M118.806 16.3436C118.806 17.1459 118.571 17.8032 118.101 18.3189C117.608 18.849 116.957 19.1135 116.141 19.1135C115.356 19.1135 114.731 18.8601 114.263 18.351C113.798 17.8431 113.565 17.2023 113.565 16.4299C113.565 15.622 113.805 14.9591 114.286 14.4445C114.767 13.9299 115.414 13.6721 116.23 13.6721C117.015 13.6721 117.647 13.9255 118.124 14.4335C118.578 14.927 118.806 15.5645 118.806 16.3436ZM117.573 16.3812C117.573 15.8998 117.466 15.487 117.254 15.1428C117.003 14.7267 116.649 14.5187 116.186 14.5187C115.709 14.5187 115.346 14.7267 115.095 15.1428C114.882 15.487 114.776 15.9064 114.776 16.4022C114.776 16.8836 114.883 17.2964 115.095 17.6406C115.353 18.0567 115.712 18.2647 116.175 18.2647C116.629 18.2647 116.986 18.0533 117.243 17.6295C117.462 17.2787 117.573 16.8626 117.573 16.3812Z" fill="white"/>
  <path d="M125.202 18.9951H124.013V16.0071C124.013 15.0864 123.655 14.626 122.934 14.626C122.581 14.626 122.296 14.7522 122.076 15.0056C121.856 15.259 121.746 15.5578 121.746 15.8998V18.994H120.555V15.269C120.555 14.8108 120.541 14.314 120.513 13.7761H121.557L121.613 14.5917H121.646C121.785 14.3383 121.992 14.1291 122.262 13.962C122.585 13.7673 122.945 13.6688 123.341 13.6688C123.84 13.6688 124.255 13.8259 124.585 14.1413C124.997 14.5275 125.202 15.1041 125.202 15.8699V18.9951V18.9951Z" fill="white"/>
  <path d="M133.207 14.6471H131.897V17.1813C131.897 17.8254 132.13 18.1474 132.591 18.1474C132.804 18.1474 132.981 18.1297 133.121 18.0932L133.151 18.973C132.917 19.0593 132.608 19.1025 132.228 19.1025C131.758 19.1025 131.392 18.963 131.128 18.6841C130.862 18.4053 130.73 17.936 130.73 17.2776V14.6471H129.948V13.7783H130.73V12.8222L131.896 12.4791V13.7772H133.206V14.6471H133.207Z" fill="white"/>
  <path d="M139.504 18.9951H138.314V16.0293C138.314 15.0941 137.955 14.626 137.236 14.626C136.685 14.626 136.308 14.8972 136.101 15.4394C136.066 15.5534 136.046 15.6928 136.046 15.8566V18.994H134.857V11.3846H136.046V14.5286H136.069C136.443 13.9565 136.98 13.671 137.676 13.671C138.168 13.671 138.576 13.8281 138.899 14.1435C139.302 14.5364 139.504 15.1207 139.504 15.8931V18.9951V18.9951Z" fill="white"/>
  <path d="M146 16.1399C146 16.348 145.984 16.5228 145.956 16.6656H142.388C142.404 17.1813 142.574 17.5741 142.905 17.8464C143.207 18.0898 143.596 18.2116 144.073 18.2116C144.601 18.2116 145.082 18.1297 145.515 17.9648L145.701 18.7704C145.194 18.9851 144.597 19.0925 143.906 19.0925C143.077 19.0925 142.425 18.8545 141.952 18.3787C141.478 17.9028 141.243 17.2643 141.243 16.4631C141.243 15.6762 141.462 15.0211 141.904 14.4988C142.364 13.941 142.988 13.6621 143.774 13.6621C144.544 13.6621 145.128 13.941 145.523 14.4988C145.842 14.9414 146 15.4892 146 16.1399ZM144.865 15.84C144.874 15.4959 144.796 15.1993 144.635 14.9492C144.428 14.6271 144.114 14.4656 143.688 14.4656C143.3 14.4656 142.983 14.6227 142.741 14.9381C142.544 15.1893 142.427 15.4892 142.388 15.84H144.865Z" fill="white"/>
</svg>