<svg xmlns="http://www.w3.org/2000/svg" width="180" height="52" viewBox="0 0 180 52" fill="none">
  <path d="M173.095 52H6.6575C2.99754 52 0 49.0734 0 45.5V6.5C0 2.92663 2.99754 2.74817e-06 6.6575 2.74817e-06H173.095C176.755 2.74817e-06 179.753 2.92663 179.753 6.5V45.5C179.753 49.0734 176.755 52 173.095 52Z" fill="#022B69"/>
  <path d="M63.233 15.7373C63.233 16.7014 62.9374 17.4735 62.355 18.0494C61.6854 18.732 60.8132 19.0755 59.7445 19.0755C58.7231 19.0755 57.851 18.7262 57.1355 18.0378C56.4186 17.3393 56.0609 16.482 56.0609 15.4559C56.0609 14.4298 56.4186 13.5725 57.1355 12.8798C57.851 12.1856 58.7231 11.8363 59.7445 11.8363C60.253 11.8363 60.7379 11.9388 61.2005 12.1293C61.6617 12.3212 62.0372 12.581 62.3092 12.9014L61.6913 13.5105C61.2168 12.9635 60.5708 12.6936 59.7445 12.6936C58.9995 12.6936 58.3535 12.9476 57.8051 13.4599C57.2626 13.9737 56.9906 14.639 56.9906 15.4559C56.9906 16.2728 57.2626 16.9439 57.8051 17.4576C58.3535 17.9642 58.9995 18.224 59.7445 18.224C60.5353 18.224 61.2005 17.9642 61.7253 17.4519C62.0712 17.1127 62.2678 16.6451 62.3195 16.0476H59.7445V15.2134H63.1798C63.2212 15.3938 63.233 15.5685 63.233 15.7373V15.7373Z" fill="white" stroke="white" stroke-width="0.16" stroke-miterlimit="10"/>
  <path d="M68.6831 12.8451H65.4562V15.0388H68.3653V15.873H65.4562V18.0667H68.6831V18.9167H64.5427V11.9951H68.6831V12.8451Z" fill="white" stroke="white" stroke-width="0.16" stroke-miterlimit="10"/>
  <path d="M72.5293 18.9167H71.6158V12.8451H69.6365V11.9951H74.5101V12.8451H72.5293V18.9167V18.9167Z" fill="white" stroke="white" stroke-width="0.16" stroke-miterlimit="10"/>
  <path d="M78.0371 18.9167V11.9951H78.9491V18.9167H78.0371Z" fill="white" stroke="white" stroke-width="0.16" stroke-miterlimit="10"/>
  <path d="M82.992 18.9167H82.0858V12.8451H80.0992V11.9951H84.9786V12.8451H82.992V18.9167Z" fill="white" stroke="white" stroke-width="0.16" stroke-miterlimit="10"/>
  <path d="M94.2055 18.0263C93.5063 18.7262 92.6401 19.0755 91.6069 19.0755C90.5677 19.0755 89.7015 18.7262 89.0023 18.0263C88.3046 17.3278 87.9572 16.4705 87.9572 15.4559C87.9572 14.4413 88.3046 13.5841 89.0023 12.8855C89.7015 12.1856 90.5677 11.8363 91.6069 11.8363C92.6342 11.8363 93.5004 12.1856 94.1996 12.8913C94.9032 13.5956 95.2506 14.4471 95.2506 15.4559C95.2506 16.4705 94.9032 17.3278 94.2055 18.0263ZM89.6778 17.4461C90.2041 17.9642 90.8441 18.224 91.6069 18.224C92.3637 18.224 93.0097 17.9642 93.53 17.4461C94.0547 16.928 94.3208 16.2627 94.3208 15.4559C94.3208 14.6491 94.0547 13.9838 93.53 13.4657C93.0097 12.9476 92.3637 12.6878 91.6069 12.6878C90.8441 12.6878 90.2041 12.9476 89.6778 13.4657C89.1531 13.9838 88.887 14.6491 88.887 15.4559C88.887 16.2627 89.1531 16.928 89.6778 17.4461V17.4461Z" fill="white" stroke="white" stroke-width="0.16" stroke-miterlimit="10"/>
  <path d="M96.5322 18.9167V11.9951H97.6408L101.088 17.3783H101.128L101.088 16.0476V11.9951H102V18.9167H101.048L97.4383 13.268H97.3984L97.4383 14.6044V18.9167H96.5322V18.9167Z" fill="white" stroke="white" stroke-width="0.16" stroke-miterlimit="10"/>
  <path d="M82.1241 29.6976C79.6861 29.6976 77.6945 31.4818 77.6945 33.9436C77.6945 36.3853 79.6861 38.1883 82.1241 38.1883C84.5672 38.1883 86.5589 36.3853 86.5589 33.9436C86.5589 31.4818 84.5672 29.6976 82.1241 29.6976ZM82.1241 36.5163C80.7864 36.5163 79.6355 35.4545 79.6355 33.9436C79.6355 32.4126 80.7864 31.3695 82.1241 31.3695C83.4618 31.3695 84.6178 32.4126 84.6178 33.9436C84.6178 35.4545 83.4618 36.5163 82.1241 36.5163V36.5163ZM72.4592 29.6976C70.016 29.6976 68.0296 31.4818 68.0296 33.9436C68.0296 36.3853 70.016 38.1883 72.4592 38.1883C74.901 38.1883 76.8888 36.3853 76.8888 33.9436C76.8888 31.4818 74.901 29.6976 72.4592 29.6976ZM72.4592 36.5163C71.1202 36.5163 69.9654 35.4545 69.9654 33.9436C69.9654 32.4126 71.1202 31.3695 72.4592 31.3695C73.7969 31.3695 74.9477 32.4126 74.9477 33.9436C74.9477 35.4545 73.7969 36.5163 72.4592 36.5163ZM60.9584 30.999V32.8032H65.4385C65.3075 33.8113 64.9572 34.5524 64.42 35.069C63.7661 35.6928 62.7476 36.3853 60.9584 36.3853C58.2012 36.3853 56.0422 34.2455 56.0422 31.5941C56.0422 28.9428 58.2012 26.8029 60.9584 26.8029C62.4492 26.8029 63.5339 27.3632 64.3344 28.0893L65.6565 26.8179C64.5368 25.7898 63.0473 25 60.9584 25C57.1775 25 54 27.9583 54 31.5941C54 35.2299 57.1775 38.1883 60.9584 38.1883C63.0019 38.1883 64.5368 37.5444 65.7435 36.3367C66.9799 35.1476 67.3653 33.4757 67.3653 32.1257C67.3653 31.7064 67.329 31.3209 67.2641 30.999H60.9584ZM107.987 32.3977C107.622 31.4481 106.497 29.6976 104.206 29.6976C101.935 29.6976 100.045 31.4182 100.045 33.9436C100.045 36.3217 101.916 38.1883 104.424 38.1883C106.452 38.1883 107.622 36.9992 108.103 36.3067L106.598 35.3422C106.096 36.0484 105.412 36.5163 104.424 36.5163C103.442 36.5163 102.737 36.0834 102.286 35.2299L108.19 32.8805L107.987 32.3977V32.3977ZM101.966 33.8113C101.916 32.1743 103.289 31.3359 104.272 31.3359C105.043 31.3359 105.697 31.7064 105.915 32.2367L101.966 33.8113V33.8113ZM97.167 37.93H99.108V25.4529H97.167V37.93ZM93.9882 30.6434H93.9233C93.4874 30.1468 92.6557 29.6976 91.6022 29.6976C89.3913 29.6976 87.3698 31.5642 87.3698 33.9573C87.3698 36.3367 89.3913 38.1883 91.6022 38.1883C92.6557 38.1883 93.4874 37.7353 93.9233 37.2238H93.9882V37.8327C93.9882 39.4559 93.0865 40.3281 91.632 40.3281C90.4461 40.3281 89.7104 39.5046 89.4068 38.8121L87.7188 39.4896C88.2054 40.615 89.4937 42 91.632 42C93.9078 42 95.828 40.7124 95.828 37.5794V29.9559H93.9882V30.6434V30.6434ZM91.7682 36.5163C90.4305 36.5163 89.3108 35.4396 89.3108 33.9573C89.3108 32.4613 90.4305 31.3695 91.7682 31.3695C93.0865 31.3695 94.1257 32.4613 94.1257 33.9573C94.1257 35.4396 93.0865 36.5163 91.7682 36.5163V36.5163ZM117.074 25.4529H112.432V37.93H114.368V33.2024H117.074C119.224 33.2024 121.333 31.7064 121.333 29.327C121.333 26.9489 119.219 25.4529 117.074 25.4529V25.4529ZM117.125 31.4669H114.368V27.1885H117.125C118.57 27.1885 119.395 28.3426 119.395 29.327C119.395 30.2928 118.57 31.4669 117.125 31.4669ZM129.091 29.6739C127.693 29.6739 126.238 30.2678 125.64 31.5841L127.358 32.2766C127.728 31.5841 128.408 31.3596 129.126 31.3596C130.131 31.3596 131.149 31.9397 131.165 32.9641V33.0951C130.814 32.9005 130.065 32.6123 129.142 32.6123C127.292 32.6123 125.407 33.5917 125.407 35.4196C125.407 37.0915 126.922 38.1683 128.626 38.1683C129.928 38.1683 130.647 37.6031 131.099 36.9455H131.165V37.91H133.034V33.1238C133.034 30.9116 131.317 29.6739 129.091 29.6739ZM128.858 36.5113C128.225 36.5113 127.342 36.2094 127.342 35.4545C127.342 34.4888 128.443 34.1182 129.395 34.1182C130.247 34.1182 130.647 34.2992 131.165 34.5375C131.013 35.6928 129.979 36.5113 128.858 36.5113V36.5113ZM139.846 29.9472L137.621 35.356H137.555L135.254 29.9472H133.167L136.623 37.5058L134.651 41.7118H136.674L142 29.9472H139.846V29.9472ZM122.396 37.93H124.337V25.4529H122.396V37.93Z" fill="white"/>
  <path d="M13.8942 9.80036C13.5031 10.2001 13.2767 10.8225 13.2767 11.6285V40.378C13.2767 41.184 13.5031 41.8064 13.8942 42.2061L13.9907 42.2939L30.4914 26.1901V25.8099L13.9907 9.70611L13.8942 9.80036Z" fill="url(#paint0_linear)"/>
  <path d="M35.9855 31.5607L30.4913 26.1901V25.8099L35.9921 20.4392L36.1153 20.5091L42.6296 24.128C44.4887 25.155 44.4887 26.845 42.6296 27.8785L36.1153 31.4908L35.9855 31.5607Z" fill="url(#paint1_linear)"/>
  <path d="M36.1153 31.4909L30.4914 26L13.8942 42.2061C14.5117 42.8399 15.5186 42.9162 16.6637 42.2825L36.1153 31.4909Z" fill="url(#paint2_linear)"/>
  <path d="M36.1153 20.5091L16.6637 9.71751C15.5186 9.09025 14.5117 9.16663 13.8942 9.80038L30.4914 26L36.1153 20.5091Z" fill="url(#paint3_linear)"/>
  <defs>
  <linearGradient id="paint0_linear" x1="29.0263" y1="40.6774" x2="7.21544" y2="18.338" gradientUnits="userSpaceOnUse">
  <stop stop-color="#00A0FF"/>
  <stop offset="0.0066" stop-color="#00A1FF"/>
  <stop offset="0.2601" stop-color="#00BEFF"/>
  <stop offset="0.5122" stop-color="#00D2FF"/>
  <stop offset="0.7604" stop-color="#00DFFF"/>
  <stop offset="1" stop-color="#00E3FF"/>
  </linearGradient>
  <linearGradient id="paint1_linear" x1="45.0505" y1="25.9982" x2="12.8323" y2="25.9982" gradientUnits="userSpaceOnUse">
  <stop stop-color="#FFE000"/>
  <stop offset="0.4087" stop-color="#FFBD00"/>
  <stop offset="0.7754" stop-color="#FFA500"/>
  <stop offset="1" stop-color="#FF9C00"/>
  </linearGradient>
  <linearGradient id="paint2_linear" x1="33.0572" y1="23.0151" x2="3.47986" y2="-7.27893" gradientUnits="userSpaceOnUse">
  <stop stop-color="#FF3A44"/>
  <stop offset="1" stop-color="#C31162"/>
  </linearGradient>
  <linearGradient id="paint3_linear" x1="9.71636" y1="51.7709" x2="22.924" y2="38.2434" gradientUnits="userSpaceOnUse">
  <stop stop-color="#32A071"/>
  <stop offset="0.0685" stop-color="#2DA771"/>
  <stop offset="0.4762" stop-color="#15CF74"/>
  <stop offset="0.8009" stop-color="#06E775"/>
  <stop offset="1" stop-color="#00F076"/>
  </linearGradient>
  </defs>
</svg>